<svg data-v-fde0c5aa="" xmlns="http://www.w3.org/2000/svg" viewBox="0 0 300 300" class="iconLeftSlogan"><!----><defs data-v-fde0c5aa=""><!----></defs><rect data-v-fde0c5aa="" fill="#FFF7EC" x="0" y="0" width="300px" height="300px" class="logo-background-square"></rect><defs data-v-fde0c5aa=""><!----></defs><g data-v-fde0c5aa="" id="793814fd-7e96-43df-b270-4a9433ccd89c" fill="#39250B" transform="matrix(1.5253604712513817,0,0,1.5253604712513817,85.43774812822143,131.72399072618921)"><path d="M4.27 0.34L4.27 0.34L1.27 0.34C1.19 0.34 1.12 0.41 1.12 0.49L1.12 10.50C1.12 10.58 1.19 10.65 1.27 10.65C1.37 10.65 1.44 10.58 1.44 10.50L1.44 0.66L4.27 0.66C6.59 0.66 8.08 1.90 8.72 3.51C9.23 4.76 9.23 6.23 8.72 7.48C8.08 9.09 6.59 10.33 4.27 10.33L3.26 10.33C3.16 10.33 3.09 10.40 3.09 10.50C3.09 10.58 3.16 10.65 3.26 10.65L4.27 10.65C6.75 10.65 8.33 9.31 9.02 7.60C9.56 6.27 9.56 4.72 9.02 3.39C8.33 1.67 6.75 0.34 4.27 0.34ZM3.44 6.50L3.44 6.50L3.44 2.65L4.27 2.65C5.59 2.65 6.43 3.39 6.80 4.33C7.08 5.05 7.08 5.92 6.80 6.66C6.43 7.60 5.59 8.33 4.27 8.33L3.28 8.33C3.19 8.33 3.11 8.41 3.11 8.50C3.11 8.58 3.19 8.67 3.28 8.67L4.27 8.67C5.74 8.67 6.69 7.84 7.10 6.78C7.42 5.96 7.42 5.03 7.10 4.20C6.69 3.15 5.74 2.32 4.27 2.32L3.28 2.32C3.19 2.32 3.11 2.39 3.11 2.49L3.11 6.50C3.11 6.58 3.19 6.65 3.28 6.65C3.36 6.65 3.44 6.58 3.44 6.50ZM15.72 6.33L15.72 6.33L13.48 6.33C13.38 6.33 13.31 6.40 13.31 6.50L13.31 8.50C13.31 8.58 13.38 8.65 13.48 8.65L16.66 8.65C16.74 8.65 16.81 8.58 16.81 8.50C16.81 8.40 16.74 8.33 16.66 8.33L13.64 8.33L13.64 6.65L15.72 6.65C15.82 6.65 15.89 6.58 15.89 6.50C15.89 6.40 15.82 6.33 15.72 6.33ZM16.66 2.34L16.66 2.34L13.48 2.34C13.38 2.34 13.31 2.41 13.31 2.49L13.31 4.49C13.31 4.58 13.38 4.66 13.48 4.66L15.72 4.66C15.82 4.66 15.89 4.58 15.89 4.49C15.89 4.41 15.82 4.33 15.72 4.33L13.64 4.33L13.64 2.66L16.66 2.66C16.74 2.66 16.81 2.59 16.81 2.49C16.81 2.41 16.74 2.34 16.66 2.34ZM16.66 10.33L16.66 10.33L11.63 10.33L11.63 0.66L16.66 0.66C16.74 0.66 16.81 0.59 16.81 0.49C16.81 0.41 16.74 0.34 16.66 0.34L11.48 0.34C11.38 0.34 11.31 0.41 11.31 0.49L11.31 10.50C11.31 10.58 11.38 10.65 11.48 10.65L16.66 10.65C16.74 10.65 16.81 10.58 16.81 10.50C16.81 10.40 16.74 10.33 16.66 10.33ZM18.31 9.98L18.31 9.98C18.87 10.26 19.40 10.44 19.91 10.56C22.46 11.16 24.71 10.07 24.71 7.53C24.71 5.00 21.64 4.48 21.01 4.00C20.82 3.85 20.71 3.63 20.71 3.42C20.69 2.94 21.07 2.69 21.49 2.63C22.15 2.56 23.00 2.83 23.49 3.02C23.69 3.11 23.81 2.81 23.62 2.73C22.81 2.39 22.18 2.27 21.50 2.31C20.86 2.34 20.36 2.81 20.38 3.46C20.47 4.73 22.20 4.47 23.58 5.75C24.77 6.85 24.56 8.60 23.60 9.56C22.36 10.81 20.09 10.54 18.48 9.70C18.28 9.60 18.13 9.88 18.31 9.98ZM23.87 0.71L23.87 0.71C23.21 0.49 22.71 0.38 22.32 0.32C20.06 0.01 18.37 1.32 18.37 3.49C18.37 6.09 21.43 6.45 22.09 7C22.41 7.29 22.47 7.80 22.13 8.11C21.43 8.75 19.63 8.23 18.75 7.62C18.58 7.50 18.38 7.76 18.56 7.88C19.46 8.54 20.59 8.76 21.48 8.71C22.13 8.67 22.72 8.20 22.68 7.55C22.60 6.26 20.89 6.50 19.52 5.31C18.31 4.23 18.54 2.45 19.43 1.48C20.54 0.28 22.26 0.49 23.76 1.01C23.95 1.09 24.07 0.78 23.87 0.71ZM28.71 10.50L28.71 10.50L28.71 0.49C28.71 0.41 28.64 0.34 28.56 0.34C28.46 0.34 28.39 0.41 28.39 0.49L28.39 10.50C28.39 10.58 28.46 10.65 28.56 10.65C28.64 10.65 28.71 10.58 28.71 10.50ZM26.71 10.50L26.71 10.50L26.71 0.49C26.71 0.41 26.64 0.34 26.56 0.34C26.46 0.34 26.39 0.41 26.39 0.49L26.39 10.50C26.39 10.58 26.46 10.65 26.56 10.65C26.64 10.65 26.71 10.58 26.71 10.50ZM38.18 9.79L38.18 9.79C37.44 10.21 36.60 10.40 35.76 10.40C33.49 10.40 31.98 9.20 31.28 7.63C30.70 6.36 30.69 4.83 31.21 3.53C31.88 1.92 33.36 0.66 35.77 0.59C36.55 0.56 37.31 0.69 38.05 0.92C38.14 0.95 38.22 0.91 38.26 0.83C38.29 0.74 38.23 0.64 38.15 0.62C37.37 0.36 36.58 0.22 35.76 0.25C33.21 0.34 31.61 1.69 30.91 3.40C30.35 4.79 30.38 6.41 30.98 7.76C31.72 9.44 33.33 10.74 35.76 10.74C36.69 10.74 37.60 10.49 38.43 10.02C38.47 9.98 38.51 9.93 38.50 9.87L38.50 5.49C38.50 5.40 38.43 5.33 38.35 5.33C38.26 5.33 38.18 5.40 38.18 5.49ZM37.91 2.65L37.91 2.65C37.24 2.34 36.48 2.25 35.76 2.28C34.24 2.34 33.28 3.16 32.86 4.21C32.54 5.05 32.55 6.05 32.91 6.87C33.35 7.91 34.31 8.71 35.76 8.71C35.95 8.71 36.15 8.69 36.33 8.65C36.41 8.65 36.47 8.58 36.47 8.50L36.47 5.49C36.47 5.40 36.40 5.33 36.32 5.33C36.22 5.33 36.15 5.40 36.15 5.49L36.15 8.34C36.01 8.37 35.88 8.37 35.76 8.37C34.45 8.37 33.61 7.67 33.21 6.75C32.87 6.01 32.86 5.10 33.17 4.34C33.54 3.40 34.40 2.66 35.77 2.62C36.46 2.58 37.14 2.66 37.79 2.94C37.87 2.98 37.97 2.94 38.00 2.86C38.04 2.79 38.00 2.69 37.91 2.65ZM49.20 10.50L49.20 10.50L49.20 0.50C49.20 0.28 48.86 0.28 48.86 0.50L48.86 10.50C48.86 10.71 49.20 10.71 49.20 10.50ZM41.03 10.50L41.03 10.50L41.03 0.50C41.03 0.28 40.71 0.28 40.71 0.50L40.71 10.50C40.71 10.71 41.03 10.71 41.03 10.50ZM42.56 0.59L42.56 0.59L46.90 6.82C46.98 6.96 47.21 6.87 47.21 6.72L47.21 0.50C47.21 0.28 46.87 0.28 46.87 0.50L46.87 6.20L42.81 0.41C42.70 0.22 42.43 0.42 42.56 0.59ZM47.36 10.40L47.36 10.40L43.02 4.17C42.91 4.05 42.71 4.12 42.71 4.27L42.71 10.50C42.71 10.71 43.05 10.71 43.05 10.50L43.05 4.79L47.08 10.60C47.22 10.77 47.47 10.58 47.36 10.40ZM55.87 6.33L55.87 6.33L53.62 6.33C53.52 6.33 53.45 6.40 53.45 6.50L53.45 10.50C53.45 10.71 53.79 10.71 53.79 10.50L53.79 6.66L55.87 6.66C56.08 6.66 56.08 6.33 55.87 6.33ZM56.80 2.34L56.80 2.34L53.62 2.34C53.52 2.34 53.45 2.41 53.45 2.49L53.45 4.49C53.45 4.58 53.52 4.66 53.62 4.66L55.87 4.66C56.08 4.66 56.08 4.33 55.87 4.33L53.79 4.33L53.79 2.66L56.80 2.66C57.01 2.66 57.01 2.34 56.80 2.34ZM51.79 10.50L51.79 10.50L51.79 0.66L56.80 0.66C57.01 0.66 57.01 0.34 56.80 0.34L51.62 0.34C51.53 0.34 51.45 0.41 51.45 0.49L51.45 10.50C51.45 10.71 51.79 10.71 51.79 10.50ZM62.54 4.65L62.54 4.65C63.20 4.65 63.73 4.16 63.73 3.50C63.73 2.83 63.20 2.34 62.54 2.34L60.77 2.34C60.56 2.34 60.56 2.66 60.77 2.66L62.54 2.66C63.01 2.66 63.41 3.01 63.41 3.50C63.41 3.98 63.01 4.34 62.54 4.34L61.98 4.34C61.88 4.34 61.81 4.41 61.81 4.49C61.81 4.58 61.88 4.65 61.98 4.65ZM63.50 10.40L63.50 10.40L60.90 6.93C60.84 6.86 60.75 6.85 60.68 6.89C60.63 6.93 60.61 6.99 60.62 7.03L60.62 10.50C60.62 10.58 60.69 10.67 60.77 10.67C60.86 10.67 60.94 10.58 60.94 10.50L60.94 7.50L63.24 10.58C63.29 10.67 63.41 10.68 63.48 10.63C63.55 10.57 63.56 10.47 63.50 10.40ZM58.94 10.50L58.94 10.50L58.94 0.66L62.71 0.66C64.27 0.66 65.51 1.95 65.51 3.50C65.51 5.04 64.27 6.33 62.71 6.33C62.62 6.33 62.55 6.40 62.55 6.50C62.55 6.54 62.57 6.58 62.59 6.61L65.67 10.58C65.74 10.67 65.84 10.68 65.91 10.61C65.98 10.57 66.00 10.47 65.94 10.40L63.04 6.65C64.64 6.48 65.84 5.10 65.84 3.50C65.84 1.76 64.46 0.32 62.71 0.32L58.77 0.32C58.69 0.32 58.62 0.41 58.62 0.49L58.62 10.50C58.62 10.58 58.69 10.67 58.77 10.67C58.87 10.67 58.94 10.58 58.94 10.50ZM71.72 6.33L71.72 6.33L69.48 6.33C69.38 6.33 69.31 6.40 69.31 6.50L69.31 8.50C69.31 8.58 69.38 8.65 69.48 8.65L72.66 8.65C72.74 8.65 72.81 8.58 72.81 8.50C72.81 8.40 72.74 8.33 72.66 8.33L69.64 8.33L69.64 6.65L71.72 6.65C71.82 6.65 71.89 6.58 71.89 6.50C71.89 6.40 71.82 6.33 71.72 6.33ZM72.66 2.34L72.66 2.34L69.48 2.34C69.38 2.34 69.31 2.41 69.31 2.49L69.31 4.49C69.31 4.58 69.38 4.66 69.48 4.66L71.72 4.66C71.82 4.66 71.89 4.58 71.89 4.49C71.89 4.41 71.82 4.33 71.72 4.33L69.64 4.33L69.64 2.66L72.66 2.66C72.74 2.66 72.81 2.59 72.81 2.49C72.81 2.41 72.74 2.34 72.66 2.34ZM72.66 10.33L72.66 10.33L67.63 10.33L67.63 0.66L72.66 0.66C72.74 0.66 72.81 0.59 72.81 0.49C72.81 0.41 72.74 0.34 72.66 0.34L67.48 0.34C67.38 0.34 67.31 0.41 67.31 0.49L67.31 10.50C67.31 10.58 67.38 10.65 67.48 10.65L72.66 10.65C72.74 10.65 72.81 10.58 72.81 10.50C72.81 10.40 72.74 10.33 72.66 10.33ZM77.34 7.57L77.34 7.57L78.81 7.57C78.90 7.57 78.97 7.50 78.97 7.42C78.97 7.39 78.97 7.38 78.96 7.35L78.23 5.56C78.19 5.46 78.11 5.42 78.01 5.46C77.94 5.49 77.90 5.59 77.92 5.67L78.58 7.27L77.34 7.27C77.25 7.27 77.17 7.34 77.17 7.42C77.17 7.50 77.25 7.57 77.34 7.57ZM76.29 10.40L76.29 10.40L76.62 9.59L79.52 9.59L79.86 10.40C79.90 10.50 79.98 10.53 80.07 10.50C80.15 10.47 80.19 10.36 80.16 10.29L79.79 9.38C79.77 9.32 79.72 9.28 79.63 9.28L76.52 9.28C76.45 9.28 76.38 9.31 76.37 9.38L75.99 10.29C75.95 10.36 75.99 10.47 76.09 10.50C76.17 10.53 76.26 10.50 76.29 10.40ZM74.12 10.40L74.12 10.40L78.08 0.70L82.04 10.40C82.07 10.50 82.17 10.53 82.25 10.50C82.33 10.47 82.36 10.36 82.33 10.29L78.23 0.22C78.18 0.08 77.98 0.07 77.92 0.22L73.82 10.29C73.78 10.36 73.82 10.47 73.91 10.50C73.99 10.53 74.09 10.50 74.12 10.40ZM84.07 10.50L84.07 10.50L84.07 0.49C84.07 0.41 84.00 0.34 83.92 0.34C83.82 0.34 83.75 0.41 83.75 0.49L83.75 10.50C83.75 10.58 83.82 10.65 83.92 10.65C84.00 10.65 84.07 10.58 84.07 10.50ZM88.07 0.39L88.07 0.39L86.07 3.08L86.07 0.49C86.07 0.41 86.00 0.34 85.92 0.34C85.82 0.34 85.75 0.41 85.75 0.49L85.75 3.56C85.75 3.61 85.76 3.67 85.82 3.70C85.89 3.75 85.99 3.74 86.04 3.67L88.34 0.59C88.40 0.52 88.38 0.42 88.31 0.36C88.23 0.31 88.13 0.32 88.07 0.39ZM88.55 10.40L88.55 10.40L86.04 6.90C85.99 6.82 85.89 6.80 85.82 6.86C85.78 6.89 85.75 6.94 85.75 7L85.75 10.50C85.75 10.58 85.82 10.65 85.92 10.65C86.00 10.65 86.07 10.58 86.07 10.50L86.07 7.49L88.28 10.58C88.34 10.65 88.44 10.68 88.51 10.63C88.58 10.57 88.59 10.47 88.55 10.40ZM90.51 0.39L90.51 0.39L87.02 5.18C86.98 5.24 86.98 5.32 87.02 5.38L87.02 5.38L90.72 10.58C90.78 10.65 90.87 10.68 90.94 10.63C91.01 10.57 91.04 10.47 90.99 10.40L87.36 5.28L90.78 0.59C90.83 0.52 90.82 0.42 90.75 0.36C90.66 0.31 90.57 0.32 90.51 0.39ZM96.75 6.33L96.75 6.33L94.51 6.33C94.42 6.33 94.35 6.40 94.35 6.50L94.35 8.50C94.35 8.58 94.42 8.65 94.51 8.65L97.69 8.65C97.78 8.65 97.85 8.58 97.85 8.50C97.85 8.40 97.78 8.33 97.69 8.33L94.67 8.33L94.67 6.65L96.75 6.65C96.85 6.65 96.92 6.58 96.92 6.50C96.92 6.40 96.85 6.33 96.75 6.33ZM97.69 2.34L97.69 2.34L94.51 2.34C94.42 2.34 94.35 2.41 94.35 2.49L94.35 4.49C94.35 4.58 94.42 4.66 94.51 4.66L96.75 4.66C96.85 4.66 96.92 4.58 96.92 4.49C96.92 4.41 96.85 4.33 96.75 4.33L94.67 4.33L94.67 2.66L97.69 2.66C97.78 2.66 97.85 2.59 97.85 2.49C97.85 2.41 97.78 2.34 97.69 2.34ZM97.69 10.33L97.69 10.33L92.67 10.33L92.67 0.66L97.69 0.66C97.78 0.66 97.85 0.59 97.85 0.49C97.85 0.41 97.78 0.34 97.69 0.34L92.51 0.34C92.41 0.34 92.34 0.41 92.34 0.49L92.34 10.50C92.34 10.58 92.41 10.65 92.51 10.65L97.69 10.65C97.78 10.65 97.85 10.58 97.85 10.50C97.85 10.40 97.78 10.33 97.69 10.33ZM103.64 4.65L103.64 4.65C104.30 4.65 104.83 4.16 104.83 3.50C104.83 2.83 104.30 2.34 103.64 2.34L101.88 2.34C101.67 2.34 101.67 2.66 101.88 2.66L103.64 2.66C104.12 2.66 104.51 3.01 104.51 3.50C104.51 3.98 104.12 4.34 103.64 4.34L103.08 4.34C102.98 4.34 102.91 4.41 102.91 4.49C102.91 4.58 102.98 4.65 103.08 4.65ZM104.61 10.40L104.61 10.40L102.00 6.93C101.95 6.86 101.85 6.85 101.78 6.89C101.74 6.93 101.71 6.99 101.72 7.03L101.72 10.50C101.72 10.58 101.79 10.67 101.88 10.67C101.96 10.67 102.05 10.58 102.05 10.50L102.05 7.50L104.34 10.58C104.40 10.67 104.51 10.68 104.58 10.63C104.65 10.57 104.66 10.47 104.61 10.40ZM100.04 10.50L100.04 10.50L100.04 0.66L103.81 0.66C105.38 0.66 106.61 1.95 106.61 3.50C106.61 5.04 105.38 6.33 103.81 6.33C103.73 6.33 103.66 6.40 103.66 6.50C103.66 6.54 103.67 6.58 103.70 6.61L106.78 10.58C106.85 10.67 106.95 10.68 107.02 10.61C107.09 10.57 107.10 10.47 107.04 10.40L104.15 6.65C105.74 6.48 106.95 5.10 106.95 3.50C106.95 1.76 105.56 0.32 103.81 0.32L99.88 0.32C99.79 0.32 99.72 0.41 99.72 0.49L99.72 10.50C99.72 10.58 99.79 10.67 99.88 10.67C99.97 10.67 100.04 10.58 100.04 10.50ZM108.04 9.98L108.04 9.98C108.60 10.26 109.13 10.44 109.63 10.56C112.18 11.16 114.44 10.07 114.44 7.53C114.44 5.00 111.37 4.48 110.74 4.00C110.54 3.85 110.43 3.63 110.43 3.42C110.42 2.94 110.80 2.69 111.22 2.63C111.87 2.56 112.73 2.83 113.22 3.02C113.41 3.11 113.54 2.81 113.34 2.73C112.53 2.39 111.90 2.27 111.23 2.31C110.59 2.34 110.08 2.81 110.11 3.46C110.19 4.73 111.93 4.47 113.30 5.75C114.49 6.85 114.28 8.60 113.33 9.56C112.08 10.81 109.82 10.54 108.21 9.70C108.01 9.60 107.86 9.88 108.04 9.98ZM113.60 0.71L113.60 0.71C112.94 0.49 112.43 0.38 112.04 0.32C109.79 0.01 108.09 1.32 108.09 3.49C108.09 6.09 111.16 6.45 111.82 7C112.14 7.29 112.20 7.80 111.86 8.11C111.16 8.75 109.35 8.23 108.47 7.62C108.30 7.50 108.11 7.76 108.29 7.88C109.19 8.54 110.32 8.76 111.20 8.71C111.86 8.67 112.45 8.20 112.41 7.55C112.32 6.26 110.61 6.50 109.24 5.31C108.04 4.23 108.26 2.45 109.16 1.48C110.26 0.28 111.99 0.49 113.48 1.01C113.68 1.09 113.79 0.78 113.60 0.71Z"></path></g><defs data-v-fde0c5aa=""><linearGradient data-v-fde0c5aa="" gradientTransform="rotate(25)" id="3c394721-b127-4abd-bb68-47b1ba25edaa" x1="0%" y1="0%" x2="100%" y2="0%"><stop data-v-fde0c5aa="" offset="0%" stop-color="#FF4B03" stop-opacity="1"></stop><stop data-v-fde0c5aa="" offset="100%" stop-color="#FCFF65" stop-opacity="1"></stop></linearGradient></defs><g data-v-fde0c5aa="" id="523e8e51-83f8-47bb-8301-58f8a396d3b6" stroke="none" fill="url(#3c394721-b127-4abd-bb68-47b1ba25edaa)" transform="matrix(1.0670672457280148,0,0,1.0670672457280148,40,132.92692406835175)"><path d="M9.382 8.675h13.943v13.943L32 31.293V0H.707zM22.618 23.325H8.675V9.382L0 .707V32h31.293z"></path></g><defs data-v-fde0c5aa=""><!----></defs><g data-v-fde0c5aa="" id="a378bd80-b2a7-4db9-b4c3-637ec8a79530" fill="#39250B" transform="matrix(0.26428231994924856,0,0,0.26428231994924856,86.96115424248248,157.1047321853555)"><path d="M7.81 9.52C7.39 9.11 6.79 8.86 6.01 8.75C6.33 8.67 6.61 8.55 6.86 8.40C7.11 8.25 7.34 8.08 7.50 7.87C7.67 7.66 7.81 7.43 7.90 7.20C7.98 6.96 8.04 6.71 8.04 6.44C8.04 6.05 7.95 5.68 7.83 5.38C7.70 5.07 7.49 4.80 7.22 4.58C6.96 4.37 6.62 4.20 6.20 4.09C5.78 3.98 5.29 3.92 4.73 3.92L1.89 3.92L0.70 3.92L0.70 4.19C0.70 4.34 0.80 4.42 0.98 4.44L1.12 4.44C1.19 4.44 1.29 4.45 1.43 4.45C1.57 4.45 1.72 4.47 1.89 4.47L1.89 13.26C1.72 13.26 1.57 13.27 1.43 13.27C1.29 13.27 1.19 13.29 1.12 13.29L0.98 13.29C0.80 13.30 0.71 13.38 0.71 13.54L0.71 13.82L1.89 13.82L5.10 13.82C5.63 13.82 6.09 13.76 6.51 13.64C6.93 13.51 7.28 13.34 7.56 13.10C7.84 12.87 8.06 12.59 8.22 12.25C8.37 11.91 8.44 11.54 8.44 11.12C8.44 10.46 8.23 9.93 7.81 9.52ZM2.60 4.48L4.73 4.48C5.61 4.48 6.27 4.66 6.69 5.00C7.11 5.35 7.32 5.84 7.32 6.51C7.32 6.76 7.28 7.03 7.18 7.27C7.08 7.50 6.93 7.71 6.72 7.91C6.51 8.11 6.24 8.26 5.92 8.37C5.60 8.48 5.21 8.55 4.75 8.55L2.60 8.55ZM7.06 12.68C6.61 13.06 5.95 13.24 5.08 13.24L2.60 13.24L2.60 9.07L5.10 9.07C5.52 9.07 5.88 9.11 6.20 9.21C6.52 9.31 6.80 9.45 7.03 9.62C7.25 9.80 7.42 10.00 7.55 10.25C7.66 10.50 7.73 10.79 7.73 11.10C7.73 11.79 7.50 12.31 7.06 12.68ZM24.63 13.29L24.53 13.29L24.35 13.29C24.26 13.29 24.18 13.27 24.09 13.27L21.13 9.53C21.04 9.42 20.93 9.32 20.82 9.25C21.25 9.21 21.64 9.11 21.99 8.96C22.34 8.81 22.62 8.61 22.88 8.37C23.11 8.13 23.31 7.85 23.44 7.55C23.56 7.24 23.63 6.89 23.63 6.51C23.63 5.66 23.35 5.03 22.79 4.58C22.23 4.14 21.38 3.92 20.23 3.92L17.82 3.92L16.65 3.92L16.65 4.19C16.65 4.34 16.73 4.42 16.91 4.44L17.05 4.44C17.12 4.44 17.22 4.45 17.36 4.45C17.50 4.45 17.65 4.47 17.82 4.47L17.82 13.26C17.65 13.26 17.50 13.27 17.36 13.27C17.22 13.27 17.12 13.29 17.05 13.29L16.91 13.29C16.73 13.30 16.63 13.38 16.63 13.54L16.63 13.82L17.82 13.82L18.54 13.82L19.71 13.82L19.71 13.54C19.71 13.38 19.61 13.30 19.43 13.29L19.29 13.29C19.22 13.29 19.12 13.27 18.98 13.27C18.84 13.27 18.70 13.26 18.54 13.26L18.54 9.34L19.71 9.34C19.91 9.34 20.05 9.35 20.13 9.39C20.22 9.44 20.30 9.52 20.38 9.62L23.56 13.64C23.62 13.71 23.66 13.75 23.72 13.78C23.77 13.80 23.84 13.82 23.91 13.82L23.98 13.82L24.53 13.82L24.89 13.82L24.89 13.54C24.89 13.38 24.81 13.30 24.63 13.29ZM20.13 8.81L18.54 8.81L18.54 4.48L20.23 4.48C21.11 4.48 21.78 4.66 22.25 5.00C22.71 5.33 22.93 5.87 22.93 6.57C22.93 6.92 22.88 7.21 22.75 7.49C22.62 7.77 22.43 7.99 22.19 8.19C21.95 8.39 21.66 8.55 21.31 8.65C20.96 8.75 20.57 8.81 20.13 8.81ZM42.06 8.86C42.06 8.11 41.93 7.41 41.71 6.79C41.48 6.17 41.16 5.64 40.74 5.19C40.32 4.75 39.83 4.40 39.26 4.16C38.68 3.92 38.02 3.79 37.32 3.79C36.62 3.79 35.99 3.92 35.42 4.16C34.85 4.40 34.34 4.75 33.92 5.19C33.50 5.64 33.18 6.17 32.96 6.79C32.73 7.41 32.61 8.11 32.61 8.86C32.61 9.63 32.73 10.33 32.96 10.95C33.18 11.56 33.50 12.10 33.92 12.54C34.34 12.99 34.85 13.33 35.42 13.57C35.99 13.80 36.62 13.93 37.32 13.93C38.02 13.93 38.68 13.80 39.26 13.57C39.83 13.33 40.32 12.99 40.74 12.54C41.16 12.10 41.48 11.56 41.71 10.95C41.93 10.33 42.06 9.63 42.06 8.86ZM41.30 8.86C41.30 9.56 41.22 10.18 41.02 10.72C40.82 11.27 40.56 11.75 40.21 12.12C39.86 12.50 39.44 12.81 38.95 13.01C38.46 13.20 37.93 13.30 37.32 13.30C36.74 13.30 36.20 13.20 35.71 13.01C35.22 12.81 34.80 12.50 34.45 12.12C34.10 11.75 33.82 11.27 33.63 10.72C33.43 10.18 33.35 9.56 33.35 8.86C33.35 8.18 33.43 7.55 33.63 7.00C33.82 6.45 34.10 5.98 34.45 5.60C34.80 5.22 35.22 4.91 35.71 4.72C36.20 4.52 36.74 4.41 37.32 4.41C37.93 4.41 38.46 4.52 38.95 4.72C39.44 4.91 39.86 5.22 40.21 5.60C40.56 5.98 40.82 6.45 41.02 7.00C41.22 7.55 41.30 8.18 41.30 8.86ZM57.76 3.92L57.57 3.92L50.27 3.92L50.06 3.92L49.97 3.92L49.97 5.96L50.32 5.96C50.51 5.96 50.60 5.85 50.61 5.63C50.61 5.53 50.64 5.17 50.67 4.52L53.56 4.52L53.56 13.26C53.40 13.26 53.26 13.27 53.12 13.27C52.98 13.27 52.86 13.29 52.79 13.29L52.67 13.29C52.49 13.30 52.39 13.38 52.39 13.54L52.39 13.82L53.56 13.82L54.28 13.82L55.47 13.82L55.47 13.54C55.47 13.38 55.37 13.30 55.19 13.29L55.05 13.29C54.98 13.29 54.88 13.27 54.74 13.27C54.60 13.27 54.45 13.26 54.28 13.26L54.28 4.52L57.16 4.52C57.20 5.24 57.22 5.60 57.22 5.63C57.23 5.85 57.33 5.96 57.53 5.96L57.86 5.96L57.86 3.92ZM75.70 4.44C75.88 4.42 75.98 4.34 75.98 4.19L75.98 3.92L74.80 3.92L74.07 3.92L72.90 3.92L72.90 4.19C72.90 4.34 73.00 4.42 73.18 4.44L73.30 4.44C73.37 4.44 73.49 4.45 73.63 4.45C73.77 4.45 73.91 4.47 74.07 4.47L74.07 8.53L67.87 8.53L67.87 4.47C68.04 4.47 68.19 4.45 68.33 4.45C68.47 4.45 68.57 4.44 68.64 4.44L68.78 4.44C68.96 4.42 69.05 4.34 69.05 4.19L69.05 3.92L67.87 3.92L67.16 3.92L65.97 3.92L65.97 4.19C65.97 4.34 66.07 4.42 66.25 4.44L66.39 4.44C66.46 4.44 66.56 4.45 66.70 4.45C66.84 4.45 66.99 4.47 67.16 4.47L67.16 13.26C66.99 13.26 66.84 13.27 66.70 13.27C66.56 13.27 66.46 13.29 66.39 13.29L66.25 13.29C66.07 13.30 65.97 13.38 65.97 13.54L65.97 13.82L67.16 13.82L67.87 13.82L69.05 13.82L69.05 13.54C69.05 13.38 68.96 13.30 68.78 13.29L68.64 13.29C68.57 13.29 68.47 13.27 68.33 13.27C68.19 13.27 68.04 13.26 67.87 13.26L67.87 9.07L74.07 9.07L74.07 13.26C73.91 13.26 73.77 13.27 73.63 13.27C73.49 13.27 73.37 13.29 73.30 13.29L73.18 13.29C73.00 13.30 72.90 13.38 72.90 13.54L72.90 13.82L74.07 13.82L74.80 13.82L75.98 13.82L75.98 13.54C75.98 13.38 75.88 13.30 75.70 13.29L75.57 13.29C75.50 13.29 75.39 13.27 75.25 13.27C75.11 13.27 74.97 13.26 74.80 13.26L74.80 4.47C74.97 4.47 75.11 4.45 75.25 4.45C75.39 4.45 75.50 4.44 75.57 4.44ZM85.51 3.92L84.32 3.92L84.32 4.19C84.32 4.34 84.42 4.42 84.60 4.44L84.74 4.44C84.81 4.44 84.91 4.45 85.05 4.45C85.19 4.45 85.34 4.47 85.51 4.47L85.51 13.26C85.34 13.26 85.19 13.27 85.05 13.27C84.91 13.27 84.81 13.29 84.74 13.29L84.60 13.29C84.42 13.30 84.34 13.38 84.34 13.54L84.34 13.82L85.51 13.82L91.45 13.82L91.45 13.22L91.45 11.76L91.10 11.76C90.90 11.76 90.82 11.89 90.80 12.11C90.80 12.14 90.79 12.19 90.79 12.29C90.79 12.39 90.79 12.53 90.78 12.74C90.76 12.95 90.75 13.09 90.75 13.22L86.23 13.22L86.23 9.09L90.17 9.09L90.17 8.51L86.23 8.51L86.23 4.51L90.75 4.51C90.78 5.12 90.80 5.50 90.80 5.63C90.82 5.85 90.90 5.96 91.10 5.96L91.45 5.96L91.45 4.51L91.45 3.92ZM108.02 13.29L107.93 13.29L107.74 13.29C107.66 13.29 107.58 13.27 107.49 13.27L104.52 9.53C104.44 9.42 104.33 9.32 104.22 9.25C104.65 9.21 105.04 9.11 105.39 8.96C105.74 8.81 106.02 8.61 106.27 8.37C106.51 8.13 106.71 7.85 106.83 7.55C106.96 7.24 107.03 6.89 107.03 6.51C107.03 5.66 106.75 5.03 106.19 4.58C105.63 4.14 104.78 3.92 103.63 3.92L101.22 3.92L100.04 3.92L100.04 4.19C100.04 4.34 100.13 4.42 100.31 4.44L100.45 4.44C100.52 4.44 100.62 4.45 100.76 4.45C100.90 4.45 101.05 4.47 101.22 4.47L101.22 13.26C101.05 13.26 100.90 13.27 100.76 13.27C100.62 13.27 100.52 13.29 100.45 13.29L100.31 13.29C100.13 13.30 100.03 13.38 100.03 13.54L100.03 13.82L101.22 13.82L101.93 13.82L103.11 13.82L103.11 13.54C103.11 13.38 103.01 13.30 102.83 13.29L102.69 13.29C102.62 13.29 102.52 13.27 102.38 13.27C102.24 13.27 102.10 13.26 101.93 13.26L101.93 9.34L103.11 9.34C103.31 9.34 103.45 9.35 103.53 9.39C103.61 9.44 103.70 9.52 103.78 9.62L106.96 13.64C107.02 13.71 107.06 13.75 107.11 13.78C107.17 13.80 107.24 13.82 107.31 13.82L107.38 13.82L107.93 13.82L108.29 13.82L108.29 13.54C108.29 13.38 108.21 13.30 108.02 13.29ZM103.53 8.81L101.93 8.81L101.93 4.48L103.63 4.48C104.51 4.48 105.18 4.66 105.64 5.00C106.11 5.33 106.33 5.87 106.33 6.57C106.33 6.92 106.27 7.21 106.15 7.49C106.02 7.77 105.83 7.99 105.59 8.19C105.35 8.39 105.06 8.55 104.71 8.65C104.36 8.75 103.96 8.81 103.53 8.81ZM126.22 4.44C126.41 4.42 126.50 4.34 126.50 4.19L126.50 3.92L125.33 3.92L124.60 3.92L123.42 3.92L123.42 4.19C123.42 4.34 123.52 4.42 123.70 4.44L123.83 4.44C123.90 4.44 124.01 4.45 124.15 4.45C124.29 4.45 124.43 4.47 124.60 4.47L124.60 8.53L118.40 8.53L118.40 4.47C118.57 4.47 118.72 4.45 118.86 4.45C119 4.45 119.10 4.44 119.17 4.44L119.31 4.44C119.49 4.42 119.57 4.34 119.57 4.19L119.57 3.92L118.40 3.92L117.68 3.92L116.49 3.92L116.49 4.19C116.49 4.34 116.59 4.42 116.77 4.44L116.91 4.44C116.98 4.44 117.08 4.45 117.22 4.45C117.36 4.45 117.52 4.47 117.68 4.47L117.68 13.26C117.52 13.26 117.36 13.27 117.22 13.27C117.08 13.27 116.98 13.29 116.91 13.29L116.77 13.29C116.59 13.30 116.49 13.38 116.49 13.54L116.49 13.82L117.68 13.82L118.40 13.82L119.57 13.82L119.57 13.54C119.57 13.38 119.49 13.30 119.31 13.29L119.17 13.29C119.10 13.29 119 13.27 118.86 13.27C118.72 13.27 118.57 13.26 118.40 13.26L118.40 9.07L124.60 9.07L124.60 13.26C124.43 13.26 124.29 13.27 124.15 13.27C124.01 13.27 123.90 13.29 123.83 13.29L123.70 13.29C123.52 13.30 123.42 13.38 123.42 13.54L123.42 13.82L124.60 13.82L125.33 13.82L126.50 13.82L126.50 13.54C126.50 13.38 126.41 13.30 126.22 13.29L126.10 13.29C126.03 13.29 125.92 13.27 125.78 13.27C125.64 13.27 125.50 13.26 125.33 13.26L125.33 4.47C125.50 4.47 125.64 4.45 125.78 4.45C125.92 4.45 126.03 4.44 126.10 4.44ZM144.12 8.86C144.12 8.11 143.99 7.41 143.77 6.79C143.54 6.17 143.22 5.64 142.80 5.19C142.38 4.75 141.89 4.40 141.32 4.16C140.74 3.92 140.08 3.79 139.38 3.79C138.68 3.79 138.05 3.92 137.48 4.16C136.91 4.40 136.40 4.75 135.98 5.19C135.56 5.64 135.24 6.17 135.02 6.79C134.79 7.41 134.67 8.11 134.67 8.86C134.67 9.63 134.79 10.33 135.02 10.95C135.24 11.56 135.56 12.10 135.98 12.54C136.40 12.99 136.91 13.33 137.48 13.57C138.05 13.80 138.68 13.93 139.38 13.93C140.08 13.93 140.74 13.80 141.32 13.57C141.89 13.33 142.38 12.99 142.80 12.54C143.22 12.10 143.54 11.56 143.77 10.95C143.99 10.33 144.12 9.63 144.12 8.86ZM143.36 8.86C143.36 9.56 143.28 10.18 143.08 10.72C142.88 11.27 142.62 11.75 142.27 12.12C141.92 12.50 141.50 12.81 141.01 13.01C140.52 13.20 139.99 13.30 139.38 13.30C138.80 13.30 138.26 13.20 137.77 13.01C137.28 12.81 136.86 12.50 136.51 12.12C136.16 11.75 135.88 11.27 135.69 10.72C135.49 10.18 135.41 9.56 135.41 8.86C135.41 8.18 135.49 7.55 135.69 7.00C135.88 6.45 136.16 5.98 136.51 5.60C136.86 5.22 137.28 4.91 137.77 4.72C138.26 4.52 138.80 4.41 139.38 4.41C139.99 4.41 140.52 4.52 141.01 4.72C141.50 4.91 141.92 5.22 142.27 5.60C142.62 5.98 142.88 6.45 143.08 7.00C143.28 7.55 143.36 8.18 143.36 8.86ZM161.66 8.86C161.66 8.11 161.53 7.41 161.31 6.79C161.08 6.17 160.76 5.64 160.34 5.19C159.92 4.75 159.43 4.40 158.86 4.16C158.28 3.92 157.63 3.79 156.93 3.79C156.23 3.79 155.60 3.92 155.02 4.16C154.45 4.40 153.94 4.75 153.52 5.19C153.10 5.64 152.78 6.17 152.56 6.79C152.33 7.41 152.21 8.11 152.21 8.86C152.21 9.63 152.33 10.33 152.56 10.95C152.78 11.56 153.10 12.10 153.52 12.54C153.94 12.99 154.45 13.33 155.02 13.57C155.60 13.80 156.23 13.93 156.93 13.93C157.63 13.93 158.28 13.80 158.86 13.57C159.43 13.33 159.92 12.99 160.34 12.54C160.76 12.10 161.08 11.56 161.31 10.95C161.53 10.33 161.66 9.63 161.66 8.86ZM160.90 8.86C160.90 9.56 160.82 10.18 160.62 10.72C160.43 11.27 160.16 11.75 159.81 12.12C159.46 12.50 159.04 12.81 158.55 13.01C158.06 13.20 157.53 13.30 156.93 13.30C156.34 13.30 155.81 13.20 155.32 13.01C154.83 12.81 154.41 12.50 154.06 12.12C153.71 11.75 153.43 11.27 153.23 10.72C153.03 10.18 152.95 9.56 152.95 8.86C152.95 8.18 153.03 7.55 153.23 7.00C153.43 6.45 153.71 5.98 154.06 5.60C154.41 5.22 154.83 4.91 155.32 4.72C155.81 4.52 156.34 4.41 156.93 4.41C157.53 4.41 158.06 4.52 158.55 4.72C159.04 4.91 159.46 5.22 159.81 5.60C160.16 5.98 160.43 6.45 160.62 7.00C160.82 7.55 160.90 8.18 160.90 8.86ZM178.93 6.80C178.71 6.19 178.39 5.68 177.97 5.25C177.55 4.82 177.06 4.48 176.48 4.26C175.91 4.03 175.25 3.92 174.55 3.92L171.12 3.92L169.93 3.92L169.93 4.19C169.93 4.34 170.03 4.42 170.21 4.44L170.35 4.44C170.42 4.44 170.52 4.45 170.66 4.45C170.80 4.45 170.95 4.47 171.12 4.47L171.12 13.26C170.95 13.26 170.80 13.27 170.66 13.27C170.52 13.27 170.42 13.29 170.35 13.29L170.21 13.29C170.03 13.30 169.93 13.38 169.93 13.54L169.93 13.82L171.12 13.82L174.55 13.82C175.25 13.82 175.91 13.71 176.48 13.48C177.06 13.26 177.55 12.92 177.97 12.49C178.39 12.05 178.71 11.54 178.93 10.92C179.16 10.30 179.28 9.63 179.28 8.86C179.28 8.11 179.16 7.42 178.93 6.80ZM178.25 10.72C178.05 11.27 177.80 11.72 177.45 12.10C177.10 12.47 176.68 12.75 176.19 12.95C175.70 13.15 175.15 13.24 174.55 13.24L171.84 13.24L171.84 4.49L174.55 4.49C175.15 4.49 175.70 4.59 176.19 4.79C176.68 4.98 177.10 5.26 177.45 5.64C177.80 6.02 178.05 6.47 178.25 7.01C178.44 7.56 178.54 8.18 178.54 8.86C178.54 9.56 178.44 10.18 178.25 10.72ZM211.75 3.92L211.20 3.92L211.16 3.92L209.69 3.92L209.69 4.19C209.69 4.34 209.78 4.42 209.96 4.44L210.08 4.44C210.14 4.44 210.24 4.45 210.38 4.45C210.52 4.45 210.66 4.47 210.83 4.47L208.45 12.24C208.42 12.33 208.39 12.43 208.38 12.54C208.36 12.66 208.33 12.75 208.31 12.87C208.28 12.75 208.26 12.63 208.24 12.53L208.15 12.24L205.35 4.10C205.32 4.05 205.30 3.99 205.25 3.96C205.21 3.93 205.16 3.92 205.09 3.92L204.89 3.92C204.82 3.92 204.76 3.93 204.72 3.98C204.68 4.02 204.64 4.05 204.62 4.10L201.82 12.25C201.80 12.35 201.77 12.43 201.74 12.54C201.71 12.64 201.70 12.75 201.67 12.88C201.66 12.78 201.63 12.67 201.60 12.54C201.59 12.43 201.56 12.33 201.53 12.24L199.15 4.47C199.32 4.47 199.46 4.45 199.58 4.45C199.71 4.45 199.79 4.44 199.85 4.44L199.96 4.44C200.14 4.42 200.24 4.34 200.24 4.19L200.24 3.92L198.77 3.92L198.18 3.92L197.58 3.92L197.58 4.19C197.58 4.34 197.68 4.42 197.86 4.44L197.96 4.44C198.00 4.44 198.04 4.45 198.11 4.45C198.18 4.45 198.27 4.47 198.35 4.47L201.31 13.82L201.94 13.82L204.88 5.22C204.92 5.11 204.95 5.00 204.97 4.87C205.00 5.00 205.03 5.11 205.07 5.22L208.00 13.82L208.64 13.82L211.58 4.47C211.67 4.47 211.74 4.45 211.81 4.45C211.88 4.45 211.93 4.44 211.97 4.44L212.07 4.44C212.25 4.42 212.34 4.34 212.34 4.19L212.34 3.92ZM223.20 4.44C223.38 4.42 223.47 4.34 223.47 4.19L223.47 3.91L222.29 3.91L221.58 3.91L220.39 3.91L220.39 4.19C220.39 4.34 220.49 4.42 220.67 4.44L220.81 4.44C220.88 4.44 220.98 4.45 221.12 4.45C221.26 4.45 221.41 4.47 221.58 4.47L221.58 13.26C221.41 13.26 221.26 13.27 221.12 13.27C220.98 13.27 220.88 13.29 220.81 13.29L220.67 13.29C220.49 13.30 220.39 13.38 220.39 13.54L220.39 13.82L221.58 13.82L222.29 13.82L223.47 13.82L223.47 13.54C223.47 13.38 223.38 13.30 223.20 13.29L223.06 13.29C222.99 13.29 222.89 13.27 222.75 13.27C222.61 13.27 222.46 13.26 222.29 13.26L222.29 4.47C222.46 4.47 222.61 4.45 222.75 4.45C222.89 4.45 222.99 4.44 223.06 4.44ZM239.33 3.92L239.13 3.92L231.84 3.92L231.63 3.92L231.53 3.92L231.53 5.96L231.88 5.96C232.08 5.96 232.16 5.85 232.18 5.63C232.18 5.53 232.20 5.17 232.23 4.52L235.13 4.52L235.13 13.26C234.96 13.26 234.82 13.27 234.68 13.27C234.54 13.27 234.43 13.29 234.36 13.29L234.23 13.29C234.05 13.30 233.95 13.38 233.95 13.54L233.95 13.82L235.13 13.82L235.84 13.82L237.03 13.82L237.03 13.54C237.03 13.38 236.94 13.30 236.75 13.29L236.61 13.29C236.54 13.29 236.45 13.27 236.31 13.27C236.17 13.27 236.01 13.26 235.84 13.26L235.84 4.52L238.73 4.52C238.77 5.24 238.78 5.60 238.78 5.63C238.80 5.85 238.90 5.96 239.09 5.96L239.43 5.96L239.43 3.92ZM257.26 4.44C257.45 4.42 257.54 4.34 257.54 4.19L257.54 3.92L256.37 3.92L255.64 3.92L254.46 3.92L254.46 4.19C254.46 4.34 254.56 4.42 254.74 4.44L254.87 4.44C254.94 4.44 255.05 4.45 255.19 4.45C255.33 4.45 255.47 4.47 255.64 4.47L255.64 8.53L249.44 8.53L249.44 4.47C249.61 4.47 249.76 4.45 249.90 4.45C250.04 4.45 250.14 4.44 250.21 4.44L250.35 4.44C250.53 4.42 250.61 4.34 250.61 4.19L250.61 3.92L249.44 3.92L248.72 3.92L247.53 3.92L247.53 4.19C247.53 4.34 247.63 4.42 247.81 4.44L247.95 4.44C248.02 4.44 248.12 4.45 248.26 4.45C248.40 4.45 248.56 4.47 248.72 4.47L248.72 13.26C248.56 13.26 248.40 13.27 248.26 13.27C248.12 13.27 248.02 13.29 247.95 13.29L247.81 13.29C247.63 13.30 247.53 13.38 247.53 13.54L247.53 13.82L248.72 13.82L249.44 13.82L250.61 13.82L250.61 13.54C250.61 13.38 250.53 13.30 250.35 13.29L250.21 13.29C250.14 13.29 250.04 13.27 249.90 13.27C249.76 13.27 249.61 13.26 249.44 13.26L249.44 9.07L255.64 9.07L255.64 13.26C255.47 13.26 255.33 13.27 255.19 13.27C255.05 13.27 254.94 13.29 254.87 13.29L254.74 13.29C254.56 13.30 254.46 13.38 254.46 13.54L254.46 13.82L255.64 13.82L256.37 13.82L257.54 13.82L257.54 13.54C257.54 13.38 257.45 13.30 257.26 13.29L257.14 13.29C257.07 13.29 256.96 13.27 256.82 13.27C256.68 13.27 256.54 13.26 256.37 13.26L256.37 4.47C256.54 4.47 256.68 4.45 256.82 4.45C256.96 4.45 257.07 4.44 257.14 4.44ZM279.08 4.44C279.26 4.42 279.34 4.34 279.34 4.19L279.34 3.91L278.17 3.91L277.45 3.91L276.26 3.91L276.26 4.19C276.26 4.34 276.36 4.42 276.54 4.44L276.68 4.44C276.75 4.44 276.85 4.45 276.99 4.45C277.13 4.45 277.28 4.47 277.45 4.47L277.45 13.26C277.28 13.26 277.13 13.27 276.99 13.27C276.85 13.27 276.75 13.29 276.68 13.29L276.54 13.29C276.36 13.30 276.26 13.38 276.26 13.54L276.26 13.82L277.45 13.82L278.17 13.82L279.34 13.82L279.34 13.54C279.34 13.38 279.26 13.30 279.08 13.29L278.94 13.29C278.87 13.29 278.77 13.27 278.63 13.27C278.49 13.27 278.33 13.26 278.17 13.26L278.17 4.47C278.33 4.47 278.49 4.45 278.63 4.45C278.77 4.45 278.87 4.44 278.94 4.44ZM296.52 3.92L295.89 3.92L294.67 3.92L294.67 4.19C294.67 4.34 294.77 4.42 294.95 4.44L295.09 4.44C295.16 4.44 295.27 4.45 295.41 4.45C295.55 4.45 295.72 4.47 295.89 4.47L295.89 12.22C295.89 12.35 295.89 12.49 295.90 12.63L289.49 4.05C289.45 3.99 289.42 3.95 289.38 3.93C289.34 3.92 289.30 3.91 289.23 3.91L288.88 3.91L287.69 3.91L287.69 4.19C287.69 4.34 287.78 4.42 287.97 4.44L288.11 4.44C288.18 4.44 288.27 4.45 288.41 4.45C288.55 4.45 288.71 4.47 288.88 4.47L288.88 13.26C288.71 13.26 288.55 13.27 288.41 13.27C288.27 13.27 288.18 13.29 288.11 13.29L287.97 13.29C287.78 13.30 287.69 13.38 287.69 13.54L287.69 13.82L288.88 13.82L289.49 13.82L290.71 13.82L290.71 13.54C290.71 13.38 290.61 13.30 290.43 13.29L290.29 13.29C290.22 13.29 290.09 13.27 289.95 13.27C289.81 13.27 289.66 13.26 289.49 13.26L289.49 5.49C289.49 5.36 289.49 5.22 289.48 5.08L295.92 13.68C295.99 13.78 296.06 13.82 296.17 13.82L296.52 13.82L296.52 4.47C296.69 4.47 296.83 4.45 296.97 4.45C297.11 4.45 297.22 4.44 297.29 4.44L297.42 4.44C297.60 4.42 297.70 4.34 297.70 4.19L297.70 3.92ZM314.57 3.92L313.94 3.92L312.72 3.92L312.72 4.19C312.72 4.34 312.82 4.42 313.00 4.44L313.14 4.44C313.21 4.44 313.32 4.45 313.46 4.45C313.60 4.45 313.77 4.47 313.94 4.47L313.94 12.22C313.94 12.35 313.94 12.49 313.95 12.63L307.54 4.05C307.50 3.99 307.47 3.95 307.43 3.93C307.38 3.92 307.34 3.91 307.27 3.91L306.92 3.91L305.73 3.91L305.73 4.19C305.73 4.34 305.83 4.42 306.01 4.44L306.15 4.44C306.22 4.44 306.32 4.45 306.46 4.45C306.60 4.45 306.75 4.47 306.92 4.47L306.92 13.26C306.75 13.26 306.60 13.27 306.46 13.27C306.32 13.27 306.22 13.29 306.15 13.29L306.01 13.29C305.83 13.30 305.73 13.38 305.73 13.54L305.73 13.82L306.92 13.82L307.54 13.82L308.76 13.82L308.76 13.54C308.76 13.38 308.66 13.30 308.48 13.29L308.34 13.29C308.27 13.29 308.14 13.27 308.00 13.27C307.86 13.27 307.71 13.26 307.54 13.26L307.54 5.49C307.54 5.36 307.54 5.22 307.52 5.08L313.96 13.68C314.03 13.78 314.10 13.82 314.22 13.82L314.57 13.82L314.57 4.47C314.73 4.47 314.87 4.45 315.01 4.45C315.15 4.45 315.27 4.44 315.34 4.44L315.46 4.44C315.64 4.42 315.74 4.34 315.74 4.19L315.74 3.92ZM333.05 8.86C333.05 8.11 332.92 7.41 332.70 6.79C332.47 6.17 332.15 5.64 331.73 5.19C331.31 4.75 330.82 4.40 330.25 4.16C329.67 3.92 329.01 3.79 328.31 3.79C327.61 3.79 326.98 3.92 326.41 4.16C325.84 4.40 325.33 4.75 324.91 5.19C324.49 5.64 324.17 6.17 323.95 6.79C323.72 7.41 323.60 8.11 323.60 8.86C323.60 9.63 323.72 10.33 323.95 10.95C324.17 11.56 324.49 12.10 324.91 12.54C325.33 12.99 325.84 13.33 326.41 13.57C326.98 13.80 327.61 13.93 328.31 13.93C329.01 13.93 329.67 13.80 330.25 13.57C330.82 13.33 331.31 12.99 331.73 12.54C332.15 12.10 332.47 11.56 332.70 10.95C332.92 10.33 333.05 9.63 333.05 8.86ZM332.29 8.86C332.29 9.56 332.21 10.18 332.01 10.72C331.81 11.27 331.55 11.75 331.20 12.12C330.85 12.50 330.43 12.81 329.94 13.01C329.45 13.20 328.92 13.30 328.31 13.30C327.73 13.30 327.19 13.20 326.70 13.01C326.21 12.81 325.79 12.50 325.44 12.12C325.09 11.75 324.81 11.27 324.62 10.72C324.42 10.18 324.34 9.56 324.34 8.86C324.34 8.18 324.42 7.55 324.62 7.00C324.81 6.45 325.09 5.98 325.44 5.60C325.79 5.22 326.21 4.91 326.70 4.72C327.19 4.52 327.73 4.41 328.31 4.41C328.92 4.41 329.45 4.52 329.94 4.72C330.43 4.91 330.85 5.22 331.20 5.60C331.55 5.98 331.81 6.45 332.01 7.00C332.21 7.55 332.29 8.18 332.29 8.86ZM349.80 3.92L349.24 3.92L349.22 3.92L347.75 3.92L347.75 4.19C347.75 4.34 347.83 4.42 348.01 4.44L348.14 4.44C348.19 4.44 348.28 4.45 348.40 4.45C348.53 4.45 348.67 4.47 348.82 4.47L345.62 12.32C345.53 12.53 345.46 12.75 345.41 13.01C345.35 12.77 345.28 12.53 345.20 12.32L341.96 4.47C342.12 4.47 342.27 4.45 342.40 4.45C342.52 4.45 342.61 4.44 342.66 4.44L342.78 4.44C342.96 4.42 343.06 4.34 343.06 4.19L343.06 3.92L341.56 3.92L341.00 3.92L340.40 3.92L340.40 4.19C340.40 4.34 340.49 4.42 340.68 4.44L340.77 4.44C340.82 4.44 340.89 4.45 340.96 4.45C341.03 4.45 341.12 4.47 341.22 4.47L345.09 13.82L345.72 13.82L349.58 4.47C349.68 4.47 349.78 4.45 349.85 4.45C349.92 4.45 349.99 4.44 350.03 4.44L350.11 4.44C350.29 4.42 350.39 4.34 350.39 4.19L350.39 3.92ZM365.22 13.22L364.76 13.17L360.98 3.91L360.26 3.91L356.47 13.17L356.02 13.22C355.84 13.23 355.75 13.33 355.75 13.50L355.75 13.82L356.20 13.82L356.50 13.82L356.75 13.82L356.85 13.82L358.16 13.82L358.16 13.50C358.16 13.31 358.05 13.23 357.84 13.22C357.83 13.22 357.80 13.20 357.76 13.20C357.71 13.20 357.66 13.19 357.56 13.19C357.46 13.19 357.34 13.19 357.20 13.17L358.18 10.75L358.25 10.57L362.98 10.57L363.05 10.75L364.03 13.17C363.89 13.19 363.78 13.19 363.68 13.19C363.58 13.19 363.51 13.20 363.47 13.20C363.43 13.20 363.40 13.22 363.38 13.22C363.17 13.23 363.06 13.31 363.06 13.50L363.06 13.82L364.38 13.82L364.48 13.82L364.74 13.82L365.02 13.82L365.48 13.82L365.48 13.50C365.48 13.33 365.40 13.23 365.22 13.22ZM360.42 5.22C360.44 5.14 360.49 5.04 360.51 4.94C360.54 4.84 360.58 4.75 360.61 4.63C360.64 4.75 360.68 4.84 360.71 4.94C360.74 5.04 360.78 5.12 360.81 5.21L362.77 10.04L358.47 10.04ZM380.14 3.92L379.95 3.92L372.65 3.92L372.44 3.92L372.34 3.92L372.34 5.96L372.69 5.96C372.89 5.96 372.97 5.85 372.99 5.63C372.99 5.53 373.02 5.17 373.04 4.52L375.94 4.52L375.94 13.26C375.77 13.26 375.63 13.27 375.49 13.27C375.35 13.27 375.24 13.29 375.17 13.29L375.05 13.29C374.86 13.30 374.77 13.38 374.77 13.54L374.77 13.82L375.94 13.82L376.66 13.82L377.85 13.82L377.85 13.54C377.85 13.38 377.75 13.30 377.57 13.29L377.43 13.29C377.36 13.29 377.26 13.27 377.12 13.27C376.98 13.27 376.82 13.26 376.66 13.26L376.66 4.52L379.54 4.52C379.58 5.24 379.60 5.60 379.60 5.63C379.61 5.85 379.71 5.96 379.90 5.96L380.24 5.96L380.24 3.92ZM391.16 4.44C391.34 4.42 391.43 4.34 391.43 4.19L391.43 3.91L390.25 3.91L389.54 3.91L388.35 3.91L388.35 4.19C388.35 4.34 388.44 4.42 388.63 4.44L388.77 4.44C388.84 4.44 388.93 4.45 389.07 4.45C389.21 4.45 389.37 4.47 389.54 4.47L389.54 13.26C389.37 13.26 389.21 13.27 389.07 13.27C388.93 13.27 388.84 13.29 388.77 13.29L388.63 13.29C388.44 13.30 388.35 13.38 388.35 13.54L388.35 13.82L389.54 13.82L390.25 13.82L391.43 13.82L391.43 13.54C391.43 13.38 391.34 13.30 391.16 13.29L391.02 13.29C390.95 13.29 390.85 13.27 390.71 13.27C390.57 13.27 390.42 13.26 390.25 13.26L390.25 4.47C390.42 4.47 390.57 4.45 390.71 4.45C390.85 4.45 390.95 4.44 391.02 4.44ZM409.04 8.86C409.04 8.11 408.91 7.41 408.69 6.79C408.46 6.17 408.14 5.64 407.72 5.19C407.30 4.75 406.81 4.40 406.24 4.16C405.66 3.92 405.01 3.79 404.31 3.79C403.61 3.79 402.98 3.92 402.40 4.16C401.83 4.40 401.32 4.75 400.90 5.19C400.48 5.64 400.16 6.17 399.94 6.79C399.71 7.41 399.59 8.11 399.59 8.86C399.59 9.63 399.71 10.33 399.94 10.95C400.16 11.56 400.48 12.10 400.90 12.54C401.32 12.99 401.83 13.33 402.40 13.57C402.98 13.80 403.61 13.93 404.31 13.93C405.01 13.93 405.66 13.80 406.24 13.57C406.81 13.33 407.30 12.99 407.72 12.54C408.14 12.10 408.46 11.56 408.69 10.95C408.91 10.33 409.04 9.63 409.04 8.86ZM408.28 8.86C408.28 9.56 408.20 10.18 408.00 10.72C407.81 11.27 407.54 11.75 407.19 12.12C406.84 12.50 406.42 12.81 405.93 13.01C405.44 13.20 404.91 13.30 404.31 13.30C403.72 13.30 403.19 13.20 402.70 13.01C402.21 12.81 401.79 12.50 401.44 12.12C401.09 11.75 400.81 11.27 400.61 10.72C400.41 10.18 400.33 9.56 400.33 8.86C400.33 8.18 400.41 7.55 400.61 7.00C400.81 6.45 401.09 5.98 401.44 5.60C401.79 5.22 402.21 4.91 402.70 4.72C403.19 4.52 403.72 4.41 404.31 4.41C404.91 4.41 405.44 4.52 405.93 4.72C406.42 4.91 406.84 5.22 407.19 5.60C407.54 5.98 407.81 6.45 408.00 7.00C408.20 7.55 408.28 8.18 408.28 8.86ZM425.87 3.92L425.24 3.92L424.02 3.92L424.02 4.19C424.02 4.34 424.12 4.42 424.30 4.44L424.44 4.44C424.51 4.44 424.62 4.45 424.76 4.45C424.90 4.45 425.07 4.47 425.24 4.47L425.24 12.22C425.24 12.35 425.24 12.49 425.25 12.63L418.84 4.05C418.80 3.99 418.77 3.95 418.73 3.93C418.68 3.92 418.64 3.91 418.57 3.91L418.22 3.91L417.03 3.91L417.03 4.19C417.03 4.34 417.13 4.42 417.31 4.44L417.45 4.44C417.52 4.44 417.62 4.45 417.76 4.45C417.90 4.45 418.05 4.47 418.22 4.47L418.22 13.26C418.05 13.26 417.90 13.27 417.76 13.27C417.62 13.27 417.52 13.29 417.45 13.29L417.31 13.29C417.13 13.30 417.03 13.38 417.03 13.54L417.03 13.82L418.22 13.82L418.84 13.82L420.06 13.82L420.06 13.54C420.06 13.38 419.96 13.30 419.78 13.29L419.64 13.29C419.57 13.29 419.44 13.27 419.30 13.27C419.16 13.27 419.01 13.26 418.84 13.26L418.84 5.49C418.84 5.36 418.84 5.22 418.82 5.08L425.26 13.68C425.33 13.78 425.40 13.82 425.52 13.82L425.87 13.82L425.87 4.47C426.03 4.47 426.17 4.45 426.31 4.45C426.45 4.45 426.57 4.44 426.64 4.44L426.76 4.44C426.94 4.42 427.04 4.34 427.04 4.19L427.04 3.92ZM454.75 13.22L454.29 13.17L450.51 3.91L449.79 3.91L446.00 13.17L445.55 13.22C445.37 13.23 445.28 13.33 445.28 13.50L445.28 13.82L445.73 13.82L446.03 13.82L446.28 13.82L446.38 13.82L447.69 13.82L447.69 13.50C447.69 13.31 447.58 13.23 447.37 13.22C447.36 13.22 447.33 13.20 447.29 13.20C447.24 13.20 447.19 13.19 447.09 13.19C446.99 13.19 446.87 13.19 446.73 13.17L447.71 10.75L447.78 10.57L452.51 10.57L452.58 10.75L453.56 13.17C453.42 13.19 453.31 13.19 453.21 13.19C453.11 13.19 453.04 13.20 453.00 13.20C452.96 13.20 452.93 13.22 452.91 13.22C452.70 13.23 452.59 13.31 452.59 13.50L452.59 13.82L453.91 13.82L454.01 13.82L454.27 13.82L454.55 13.82L455.01 13.82L455.01 13.50C455.01 13.33 454.93 13.23 454.75 13.22ZM449.95 5.22C449.97 5.14 450.02 5.04 450.04 4.94C450.07 4.84 450.11 4.75 450.14 4.63C450.17 4.75 450.21 4.84 450.24 4.94C450.27 5.04 450.31 5.12 450.34 5.21L452.30 10.04L448 10.04ZM472.08 3.92L471.45 3.92L470.23 3.92L470.23 4.19C470.23 4.34 470.33 4.42 470.51 4.44L470.65 4.44C470.72 4.44 470.83 4.45 470.97 4.45C471.11 4.45 471.28 4.47 471.45 4.47L471.45 12.22C471.45 12.35 471.45 12.49 471.46 12.63L465.05 4.05C465.01 3.99 464.98 3.95 464.94 3.93C464.90 3.92 464.86 3.91 464.79 3.91L464.44 3.91L463.25 3.91L463.25 4.19C463.25 4.34 463.34 4.42 463.53 4.44L463.67 4.44C463.74 4.44 463.83 4.45 463.97 4.45C464.11 4.45 464.27 4.47 464.44 4.47L464.44 13.26C464.27 13.26 464.11 13.27 463.97 13.27C463.83 13.27 463.74 13.29 463.67 13.29L463.53 13.29C463.34 13.30 463.25 13.38 463.25 13.54L463.25 13.82L464.44 13.82L465.05 13.82L466.27 13.82L466.27 13.54C466.27 13.38 466.17 13.30 465.99 13.29L465.85 13.29C465.78 13.29 465.65 13.27 465.51 13.27C465.37 13.27 465.22 13.26 465.05 13.26L465.05 5.49C465.05 5.36 465.05 5.22 465.04 5.08L471.48 13.68C471.55 13.78 471.62 13.82 471.73 13.82L472.08 13.82L472.08 4.47C472.25 4.47 472.39 4.45 472.53 4.45C472.67 4.45 472.78 4.44 472.85 4.44L472.98 4.44C473.16 4.42 473.26 4.34 473.26 4.19L473.26 3.92ZM490.29 6.80C490.07 6.19 489.75 5.68 489.33 5.25C488.91 4.82 488.42 4.48 487.84 4.26C487.27 4.03 486.61 3.92 485.91 3.92L482.48 3.92L481.29 3.92L481.29 4.19C481.29 4.34 481.39 4.42 481.57 4.44L481.71 4.44C481.78 4.44 481.88 4.45 482.02 4.45C482.16 4.45 482.31 4.47 482.48 4.47L482.48 13.26C482.31 13.26 482.16 13.27 482.02 13.27C481.88 13.27 481.78 13.29 481.71 13.29L481.57 13.29C481.39 13.30 481.29 13.38 481.29 13.54L481.29 13.82L482.48 13.82L485.91 13.82C486.61 13.82 487.27 13.71 487.84 13.48C488.42 13.26 488.91 12.92 489.33 12.49C489.75 12.05 490.07 11.54 490.29 10.92C490.52 10.30 490.64 9.63 490.64 8.86C490.64 8.11 490.52 7.42 490.29 6.80ZM489.61 10.72C489.41 11.27 489.16 11.72 488.81 12.10C488.46 12.47 488.04 12.75 487.55 12.95C487.06 13.15 486.51 13.24 485.91 13.24L483.20 13.24L483.20 4.49L485.91 4.49C486.51 4.49 487.06 4.59 487.55 4.79C488.04 4.98 488.46 5.26 488.81 5.64C489.16 6.02 489.41 6.47 489.61 7.01C489.80 7.56 489.90 8.18 489.90 8.86C489.90 9.56 489.80 10.18 489.61 10.72ZM517.03 12.21C517.01 12.18 516.96 12.15 516.92 12.15C516.89 12.15 516.88 12.15 516.85 12.17C516.84 12.18 516.81 12.21 516.78 12.22C516.59 12.40 516.38 12.56 516.18 12.70C515.98 12.84 515.77 12.94 515.54 13.03C515.30 13.13 515.05 13.20 514.77 13.24C514.49 13.29 514.18 13.31 513.83 13.31C513.27 13.31 512.72 13.22 512.25 13.01C511.76 12.81 511.35 12.52 511 12.14C510.65 11.76 510.36 11.28 510.16 10.74C509.96 10.19 509.87 9.56 509.87 8.86C509.87 8.18 509.96 7.56 510.16 7.01C510.37 6.47 510.65 6.01 511.01 5.61C511.38 5.24 511.81 4.94 512.32 4.73C512.82 4.52 513.37 4.42 513.97 4.42C514.86 4.42 515.69 4.56 516.42 4.89C516.46 5.78 516.50 6.30 516.50 6.41C516.52 6.64 516.60 6.75 516.80 6.75L517.13 6.75L517.13 4.51C515.96 4.03 514.89 3.81 513.97 3.81C513.25 3.81 512.61 3.92 512.01 4.17C511.42 4.42 510.89 4.76 510.47 5.21C510.03 5.66 509.71 6.19 509.47 6.80C509.24 7.42 509.12 8.11 509.12 8.86C509.12 9.63 509.25 10.32 509.47 10.95C509.70 11.58 510.02 12.10 510.43 12.54C510.83 12.99 511.32 13.33 511.90 13.57C512.47 13.80 513.09 13.93 513.77 13.93C514.18 13.93 514.56 13.90 514.91 13.83C515.24 13.76 515.56 13.66 515.86 13.54C516.14 13.41 516.40 13.26 516.64 13.09C516.88 12.91 517.10 12.73 517.31 12.50ZM533.32 13.29L533.22 13.29L533.04 13.29C532.95 13.29 532.87 13.27 532.78 13.27L529.82 9.53C529.73 9.42 529.62 9.32 529.51 9.25C529.94 9.21 530.33 9.11 530.68 8.96C531.03 8.81 531.31 8.61 531.57 8.37C531.80 8.13 532 7.85 532.13 7.55C532.25 7.24 532.32 6.89 532.32 6.51C532.32 5.66 532.04 5.03 531.48 4.58C530.92 4.14 530.07 3.92 528.92 3.92L526.51 3.92L525.34 3.92L525.34 4.19C525.34 4.34 525.42 4.42 525.60 4.44L525.74 4.44C525.81 4.44 525.91 4.45 526.05 4.45C526.19 4.45 526.34 4.47 526.51 4.47L526.51 13.26C526.34 13.26 526.19 13.27 526.05 13.27C525.91 13.27 525.81 13.29 525.74 13.29L525.60 13.29C525.42 13.30 525.32 13.38 525.32 13.54L525.32 13.82L526.51 13.82L527.23 13.82L528.40 13.82L528.40 13.54C528.40 13.38 528.30 13.30 528.12 13.29L527.98 13.29C527.91 13.29 527.81 13.27 527.67 13.27C527.53 13.27 527.39 13.26 527.23 13.26L527.23 9.34L528.40 9.34C528.60 9.34 528.74 9.35 528.82 9.39C528.91 9.44 528.99 9.52 529.07 9.62L532.25 13.64C532.31 13.71 532.35 13.75 532.41 13.78C532.46 13.80 532.53 13.82 532.60 13.82L532.67 13.82L533.22 13.82L533.58 13.82L533.58 13.54C533.58 13.38 533.50 13.30 533.32 13.29ZM528.82 8.81L527.23 8.81L527.23 4.48L528.92 4.48C529.80 4.48 530.47 4.66 530.94 5.00C531.40 5.33 531.62 5.87 531.62 6.57C531.62 6.92 531.57 7.21 531.44 7.49C531.31 7.77 531.12 7.99 530.88 8.19C530.64 8.39 530.35 8.55 530.00 8.65C529.65 8.75 529.26 8.81 528.82 8.81ZM542.98 3.92L541.79 3.92L541.79 4.19C541.79 4.34 541.88 4.42 542.07 4.44L542.21 4.44C542.28 4.44 542.37 4.45 542.51 4.45C542.65 4.45 542.81 4.47 542.98 4.47L542.98 13.26C542.81 13.26 542.65 13.27 542.51 13.27C542.37 13.27 542.28 13.29 542.21 13.29L542.07 13.29C541.88 13.30 541.80 13.38 541.80 13.54L541.80 13.82L542.98 13.82L548.91 13.82L548.91 13.22L548.91 11.76L548.56 11.76C548.37 11.76 548.28 11.89 548.27 12.11C548.27 12.14 548.25 12.19 548.25 12.29C548.25 12.39 548.25 12.53 548.24 12.74C548.23 12.95 548.21 13.09 548.21 13.22L543.69 13.22L543.69 9.09L547.64 9.09L547.64 8.51L543.69 8.51L543.69 4.51L548.21 4.51C548.24 5.12 548.27 5.50 548.27 5.63C548.28 5.85 548.37 5.96 548.56 5.96L548.91 5.96L548.91 4.51L548.91 3.92ZM566.79 13.22L566.33 13.17L562.55 3.91L561.83 3.91L558.04 13.17L557.59 13.22C557.41 13.23 557.33 13.33 557.33 13.50L557.33 13.82L557.77 13.82L558.07 13.82L558.32 13.82L558.42 13.82L559.73 13.82L559.73 13.50C559.73 13.31 559.62 13.23 559.41 13.22C559.40 13.22 559.37 13.20 559.33 13.20C559.29 13.20 559.23 13.19 559.13 13.19C559.03 13.19 558.91 13.19 558.77 13.17L559.75 10.75L559.82 10.57L564.55 10.57L564.62 10.75L565.60 13.17C565.46 13.19 565.35 13.19 565.25 13.19C565.15 13.19 565.08 13.20 565.04 13.20C565.00 13.20 564.97 13.22 564.96 13.22C564.75 13.23 564.63 13.31 564.63 13.50L564.63 13.82L565.95 13.82L566.05 13.82L566.31 13.82L566.59 13.82L567.06 13.82L567.06 13.50C567.06 13.33 566.97 13.23 566.79 13.22ZM561.99 5.22C562.02 5.14 562.06 5.04 562.09 4.94C562.11 4.84 562.16 4.75 562.18 4.63C562.21 4.75 562.25 4.84 562.28 4.94C562.31 5.04 562.35 5.12 562.38 5.21L564.34 10.04L560.04 10.04ZM581.71 3.92L581.52 3.92L574.22 3.92L574.01 3.92L573.92 3.92L573.92 5.96L574.27 5.96C574.46 5.96 574.55 5.85 574.56 5.63C574.56 5.53 574.59 5.17 574.62 4.52L577.51 4.52L577.51 13.26C577.35 13.26 577.21 13.27 577.07 13.27C576.93 13.27 576.81 13.29 576.74 13.29L576.62 13.29C576.44 13.30 576.34 13.38 576.34 13.54L576.34 13.82L577.51 13.82L578.23 13.82L579.42 13.82L579.42 13.54C579.42 13.38 579.32 13.30 579.14 13.29L579.00 13.29C578.93 13.29 578.83 13.27 578.69 13.27C578.55 13.27 578.40 13.26 578.23 13.26L578.23 4.52L581.11 4.52C581.15 5.24 581.17 5.60 581.17 5.63C581.18 5.85 581.28 5.96 581.48 5.96L581.81 5.96L581.81 3.92ZM592.73 4.44C592.91 4.42 593.00 4.34 593.00 4.19L593.00 3.91L591.82 3.91L591.11 3.91L589.92 3.91L589.92 4.19C589.92 4.34 590.02 4.42 590.20 4.44L590.34 4.44C590.41 4.44 590.51 4.45 590.65 4.45C590.79 4.45 590.94 4.47 591.11 4.47L591.11 13.26C590.94 13.26 590.79 13.27 590.65 13.27C590.51 13.27 590.41 13.29 590.34 13.29L590.20 13.29C590.02 13.30 589.92 13.38 589.92 13.54L589.92 13.82L591.11 13.82L591.82 13.82L593.00 13.82L593.00 13.54C593.00 13.38 592.91 13.30 592.73 13.29L592.59 13.29C592.52 13.29 592.42 13.27 592.28 13.27C592.14 13.27 591.99 13.26 591.82 13.26L591.82 4.47C591.99 4.47 592.14 4.45 592.28 4.45C592.42 4.45 592.52 4.44 592.59 4.44ZM610.39 3.92L609.83 3.92L609.80 3.92L608.33 3.92L608.33 4.19C608.33 4.34 608.41 4.42 608.59 4.44L608.72 4.44C608.78 4.44 608.86 4.45 608.99 4.45C609.11 4.45 609.25 4.47 609.41 4.47L606.20 12.32C606.12 12.53 606.05 12.75 605.99 13.01C605.93 12.77 605.86 12.53 605.78 12.32L602.55 4.47C602.70 4.47 602.85 4.45 602.98 4.45C603.11 4.45 603.19 4.44 603.25 4.44L603.36 4.44C603.54 4.42 603.64 4.34 603.64 4.19L603.64 3.92L602.14 3.92L601.58 3.92L600.98 3.92L600.98 4.19C600.98 4.34 601.08 4.42 601.26 4.44L601.36 4.44C601.40 4.44 601.47 4.45 601.54 4.45C601.61 4.45 601.71 4.47 601.80 4.47L605.67 13.82L606.30 13.82L610.16 4.47C610.26 4.47 610.36 4.45 610.43 4.45C610.50 4.45 610.57 4.44 610.61 4.44L610.69 4.44C610.88 4.42 610.97 4.34 610.97 4.19L610.97 3.92ZM621.84 4.44C622.02 4.42 622.10 4.34 622.10 4.19L622.10 3.91L620.93 3.91L620.21 3.91L619.02 3.91L619.02 4.19C619.02 4.34 619.12 4.42 619.30 4.44L619.44 4.44C619.51 4.44 619.61 4.45 619.75 4.45C619.89 4.45 620.05 4.47 620.21 4.47L620.21 13.26C620.05 13.26 619.89 13.27 619.75 13.27C619.61 13.27 619.51 13.29 619.44 13.29L619.30 13.29C619.12 13.30 619.02 13.38 619.02 13.54L619.02 13.82L620.21 13.82L620.93 13.82L622.10 13.82L622.10 13.54C622.10 13.38 622.02 13.30 621.84 13.29L621.70 13.29C621.63 13.29 621.53 13.27 621.39 13.27C621.25 13.27 621.10 13.26 620.93 13.26L620.93 4.47C621.10 4.47 621.25 4.45 621.39 4.45C621.53 4.45 621.63 4.44 621.70 4.44ZM637.97 3.92L637.77 3.92L630.48 3.92L630.27 3.92L630.17 3.92L630.17 5.96L630.52 5.96C630.71 5.96 630.80 5.85 630.81 5.63C630.81 5.53 630.84 5.17 630.87 4.52L633.77 4.52L633.77 13.26C633.60 13.26 633.46 13.27 633.32 13.27C633.18 13.27 633.07 13.29 633.00 13.29L632.87 13.29C632.69 13.30 632.59 13.38 632.59 13.54L632.59 13.82L633.77 13.82L634.48 13.82L635.67 13.82L635.67 13.54C635.67 13.38 635.57 13.30 635.39 13.29L635.25 13.29C635.18 13.29 635.08 13.27 634.94 13.27C634.80 13.27 634.65 13.26 634.48 13.26L634.48 4.52L637.36 4.52C637.41 5.24 637.42 5.60 637.42 5.63C637.43 5.85 637.53 5.96 637.73 5.96L638.06 5.96L638.06 3.92ZM654.30 3.92L654.23 3.92L653.67 3.92L653.56 3.92L652.16 3.92L652.16 4.19C652.16 4.34 652.26 4.42 652.44 4.44L652.55 4.44C652.61 4.44 652.68 4.45 652.79 4.45C652.90 4.45 653.03 4.47 653.17 4.47L650.58 8.64C650.51 8.75 650.45 8.85 650.41 8.95C650.37 9.04 650.33 9.16 650.29 9.25C650.24 9.16 650.20 9.04 650.16 8.95C650.12 8.85 650.06 8.75 649.99 8.64L647.39 4.47C647.53 4.47 647.65 4.45 647.77 4.45C647.88 4.45 647.96 4.44 648.02 4.44L648.12 4.44C648.30 4.42 648.40 4.34 648.40 4.19L648.40 3.92L647.00 3.92L646.88 3.92L646.32 3.92L646.25 3.92L645.81 3.92L645.81 4.19C645.81 4.34 645.90 4.42 646.09 4.44C646.32 4.45 646.51 4.47 646.60 4.47L649.92 9.73L649.92 13.26C649.75 13.26 649.60 13.27 649.46 13.27C649.32 13.27 649.22 13.29 649.15 13.29L649.03 13.29C648.84 13.30 648.75 13.38 648.75 13.54L648.75 13.82L649.92 13.82L650.64 13.82L651.81 13.82L651.81 13.54C651.81 13.38 651.73 13.30 651.55 13.29L651.41 13.29C651.34 13.29 651.24 13.27 651.10 13.27C650.96 13.27 650.80 13.26 650.64 13.26L650.64 9.73L653.95 4.47C654.07 4.47 654.23 4.45 654.47 4.44C654.65 4.42 654.75 4.34 654.75 4.19L654.75 3.92Z"></path></g></svg>